<?xml version="1.0" encoding="UTF-8" standalone="no"?>
<!-- Created with Inkscape (http://www.inkscape.org/) -->

<svg
   width="128"
   height="128"
   viewBox="0 0 512 512"
   version="1.1"
   id="svg1"
   sodipodi:docname="mobile-icon.svg"
   inkscape:version="1.4 (e7c3feb100, 2024-10-09)"
   xmlns:inkscape="http://www.inkscape.org/namespaces/inkscape"
   xmlns:sodipodi="http://sodipodi.sourceforge.net/DTD/sodipodi-0.dtd"
   xmlns:xlink="http://www.w3.org/1999/xlink"
   xmlns="http://www.w3.org/2000/svg"
   xmlns:svg="http://www.w3.org/2000/svg">
  <sodipodi:namedview
     id="namedview1"
     pagecolor="#505050"
     bordercolor="#ffffff"
     borderopacity="1"
     inkscape:showpageshadow="0"
     inkscape:pageopacity="0"
     inkscape:pagecheckerboard="1"
     inkscape:deskcolor="#505050"
     inkscape:document-units="px"
     showguides="true"
     inkscape:zoom="0.5427597"
     inkscape:cx="117.9159"
     inkscape:cy="180.55873"
     inkscape:window-width="1920"
     inkscape:window-height="988"
     inkscape:window-x="0"
     inkscape:window-y="0"
     inkscape:window-maximized="1"
     inkscape:current-layer="layer1">
    <sodipodi:guide
       position="502.49055,692.13812"
       orientation="0,-1"
       id="guide16"
       inkscape:locked="false" />
  </sodipodi:namedview>
  <defs
     id="defs1">
    <linearGradient
       id="linearGradient7"
       inkscape:collect="always">
      <stop
         style="stop-color:#641800;stop-opacity:1;"
         offset="0"
         id="stop7" />
      <stop
         style="stop-color:#421f1f;stop-opacity:1;"
         offset="1"
         id="stop8" />
    </linearGradient>
    <linearGradient
       inkscape:collect="always"
       xlink:href="#linearGradient7"
       id="linearGradient8"
       x1="89.357422"
       y1="268.24901"
       x2="306.10742"
       y2="268.24901"
       gradientUnits="userSpaceOnUse"
       gradientTransform="matrix(1.0522898,0,0,1.0522898,-13.386181,-13.386181)" />
  </defs>
  <g
     inkscape:groupmode="layer"
     id="layer5"
     inkscape:label="Ikona">
    <g
       inkscape:label="Tło"
       inkscape:groupmode="layer"
       id="layer1"
       style="display:inline">
    </g>
    <g
       inkscape:groupmode="layer"
       id="layer2"
       inkscape:label="Cień"
       transform="translate(0.04952,0.56443)"
       style="fill:#52463d;fill-opacity:1">
      <g
         id="path2-5"
         style="fill:#52463d;fill-opacity:1"
         transform="matrix(1.0522898,0,0,1.0522898,-489.68584,-8.4293664)">
        <path
           style="fill:#52463d;fill-opacity:1;stroke-linecap:square;stroke-miterlimit:3.5"
           d="m 571.30583,103.18453 194.7714,354.26346"
           id="path27" />
        <path
           style="fill:#52463d;fill-opacity:1;stroke-linecap:square;stroke-miterlimit:3.5"
           d="m 573.72852,94.847656 -10.75977,5.914064 2.95703,5.38086 194.77149,354.26367 2.95898,5.37891 10.75781,-5.91602 -2.95703,-5.37891 -194.77148,-354.26367 z"
           id="path28" />
      </g>
      <path
         d="m 161.00599,117.93912 c -39.91309,-2.2e-4 -72.269096,32.35578 -72.268875,72.26887 0.03967,13.8588 4.063412,27.41394 11.591635,39.04982 0.14081,0.26807 0.28331,0.53526 0.42749,0.80154 l 0.52203,0.73784 130.25579,184.79195 0.16442,-0.0884 c 8.82181,12.18099 22.92485,19.42337 37.96465,19.49613 26.04393,4.8e-4 47.15714,-21.11181 47.15779,-47.15574 -0.009,-5.48765 -0.97717,-10.9315 -2.85886,-16.08647 -0.16592,-0.44583 -0.33859,-0.88913 -0.51792,-1.32975 l -0.81388,-1.97304 -84.90458,-205.9364 -0.58163,-1.41195 c -0.0606,-0.12761 -0.12157,-0.25504 -0.18292,-0.38228 -11.62715,-26.01725 -37.45798,-42.77257 -65.95514,-42.78216 z"
         style="fill:#52463d;fill-opacity:1;stroke:none;stroke-width:25.1266;stroke-linecap:round;stroke-miterlimit:3.5"
         id="path6-6" />
      <path
         d="m 413.052,276.00044 0.47271,0.47271 7.67225,7.67225 -8.14291,8.14291 h 23.03117 l 8.14498,-8.14496 -8.14292,-8.14291 z"
         style="fill:#52463d;fill-opacity:1;stroke-width:16.2873;stroke-miterlimit:3.5"
         id="path18-7" />
      <path
         d="m 384.54357,276.00044 8.14292,8.14291 -8.14497,8.14496 h 23.03529 l 8.14496,-8.14496 -8.14291,-8.14291 z"
         style="fill:#52463d;fill-opacity:1;stroke-width:16.2873;stroke-miterlimit:3.5"
         id="path17-0" />
      <path
         d="m 379.06838,276.00044 h -23.03117 l 8.14291,8.14291 -8.14496,8.14496 h 23.03117 l 8.14497,-8.14496 z"
         style="fill:#52463d;fill-opacity:1;stroke-width:16.2873;stroke-miterlimit:3.5"
         id="path16-9" />
      <g
         id="path19-3"
         style="fill:#52463d;fill-opacity:1"
         transform="matrix(1.0522898,0,0,1.0522898,-489.68584,-8.4293664)">
        <path
           d="m 749.27344,71.664062 c -14.12121,5e-6 -25.73438,11.61317 -25.73438,25.734375 0,9.570093 5.34224,17.974123 13.17578,22.406253 l -26.50586,127.58984 c -0.13147,0.38771 -2.10641,6.15983 -6.09765,12.05664 -4.12659,6.09681 -9.41152,10.84571 -15.7168,10.8457 h -1.25976 -0.16797 -0.0156 -0.002 c -10e-4,0 0.002,3.86928 0.002,7.73829 -2.2e-4,3.86999 -0.003,7.74023 -0.002,7.74023 h 0.002 0.0156 0.16797 1.25976 1.71484 16.94336 60.51758 30.66992 l 7.74024,-7.74023 -7.74024,-7.73829 h -30.66992 -52.34375 c 0.54215,-0.72703 1.2201,-1.45627 1.70313,-2.16992 5.51669,-8.15058 8.0957,-16.18359 8.0957,-16.18359 l 0.13281,-0.4082 L 751.85937,123 c 12.92507,-1.31404 23.14844,-12.35304 23.14844,-25.601563 0,-14.121205 -11.61317,-25.73437 -25.73437,-25.734375 z m 0,15.478516 c 5.75627,10e-7 10.25586,4.499585 10.25586,10.255859 0,3.393053 -1.58815,6.319633 -4.05078,8.175783 -1.7152,1.29279 -3.84186,2.08203 -6.20508,2.08203 -3.91662,0 -7.21125,-2.11058 -8.94336,-5.25586 -0.81359,-1.47736 -1.31446,-3.162289 -1.31446,-5.001953 0,-5.756274 4.50154,-10.255858 10.25782,-10.255859 z"
           style="fill:#52463d;fill-opacity:1;stroke-miterlimit:3.5"
           id="path31" />
      </g>
    </g>
    <g
       inkscape:groupmode="layer"
       id="layer3"
       inkscape:label="Pierwszy plan">
      <g
         id="path2"
         transform="matrix(1.0522898,0,0,1.0522898,-13.386181,-13.386181)">
        <path
           style="fill:#ffffff;stroke-linecap:square;stroke-miterlimit:3.5"
           d="m 113.4043,92.355469 -10.75782,5.916015 2.95704,5.378906 194.77148,354.26367 2.95703,5.37891 10.75977,-5.91406 -2.95703,-5.38086 L 116.36328,97.736328 Z"
           id="path26" />
        <g
           id="g24">
          <path
             id="path25"
             style="fill:context-stroke;stroke-width:0.5"
             d="m 306.19251,454.71571 0.14092,0.25632 c 0.17946,0.32642 0.53148,0.344 0.779,0.37908 l -1.75258,0.96356 c 0.10299,-0.2278 0.27675,-0.53445 0.0973,-0.86086 l -0.14092,-0.25632 0.41406,-0.2847 z"
             sodipodi:nodetypes="sssssscsss" />
          <path
             id="path24"
             style="fill:context-stroke;stroke-width:0.5"
             d="m 110.54481,100.93403 -0.14092,-0.25632 c -0.17946,-0.32642 -0.53148,-0.344 -0.779,-0.37908 l 1.75258,-0.963562 c -0.10299,0.2278 -0.27675,0.534448 -0.0973,0.860862 l 0.14092,0.25632 -0.41406,0.2847 z"
             sodipodi:nodetypes="sssssscsss" />
        </g>
      </g>
      <path
         d="m 152.9126,110.36063 c -39.9131,-2.2e-4 -72.269102,32.35579 -72.26888,72.26888 0.03967,13.8588 4.063408,27.41393 11.591632,39.04982 0.140818,0.26807 0.283319,0.53525 0.427493,0.80154 l 0.52203,0.73784 130.255795,184.79194 0.16442,-0.0884 c 8.82181,12.18099 22.92485,19.42338 37.96465,19.49613 26.04393,4.9e-4 47.15713,-21.1118 47.15779,-47.15573 -0.009,-5.48765 -0.97717,-10.9315 -2.85887,-16.08647 -0.16591,-0.44584 -0.33858,-0.88913 -0.51791,-1.32975 l -0.81388,-1.97304 -84.90458,-205.9364 -0.58164,-1.41196 c -0.0606,-0.12761 -0.12157,-0.25503 -0.18292,-0.38227 C 207.24059,127.1255 181.40975,110.37019 152.9126,110.3606 Z"
         style="fill:url(#linearGradient8);stroke:none;stroke-width:25.1266;stroke-linecap:round;stroke-miterlimit:3.5"
         id="path6" />
      <g
         id="path8"
         transform="matrix(1.0522898,0,0,1.0522898,-13.386181,-13.386181)">
        <g
           id="g10">
          <path
             style="fill:context-stroke;fill-rule:evenodd;stroke-width:0.6"
             d="m 402.00296,275.54427 -1.8,1.8 h -1.2 l 1.8,-1.8 -1.8,-1.8 h 1.2 z"
             id="path10" />
        </g>
      </g>
      <path
         d="m 404.9586,268.42195 0.47271,0.47271 7.67226,7.67226 -8.14291,8.14291 h 23.03117 l 8.14497,-8.14496 -8.14291,-8.14292 z"
         style="fill:#ffffff;stroke-width:16.2873;stroke-miterlimit:3.5"
         id="path18" />
      <path
         d="m 376.45018,268.42195 8.14291,8.14292 -8.14496,8.14496 h 23.03528 l 8.14497,-8.14496 -8.14291,-8.14292 z"
         style="fill:#ffffff;stroke-width:16.2873;stroke-miterlimit:3.5"
         id="path17" />
      <path
         d="m 370.97499,268.42195 h -23.03117 l 8.14291,8.14292 -8.14496,8.14496 h 23.03117 l 8.14496,-8.14496 z"
         style="fill:#ffffff;stroke-width:16.2873;stroke-miterlimit:3.5"
         id="path16" />
      <path
         d="m 290.67418,59.402675 c -14.85961,-5e-6 -27.08208,12.222469 -27.08208,27.082075 0,10.069989 5.62168,18.9138 13.86474,23.57786 l -27.88978,134.25944 c -0.13835,0.40798 -2.21657,6.48192 -6.41651,12.68707 -4.34237,6.41562 -9.90363,11.41283 -16.53861,11.41283 h -1.32565 -0.17675 -0.0164 -0.002 c -0.001,0 0.002,4.0716 0.002,8.14292 -2.3e-4,4.07235 -0.003,8.14496 -0.002,8.14496 h 0.002 0.0164 0.17675 1.32565 1.8045 17.82933 63.68203 32.27364 l 8.14291,-8.14496 -8.14291,-8.14292 H 309.9278 254.84701 c 0.57049,-0.76504 1.28388,-1.53241 1.79217,-2.28338 5.80516,-8.57677 8.51902,-17.02984 8.51902,-17.02984 l 0.13977,-0.42954 28.09532,-135.25417 c 13.60187,-1.38182 24.36091,-12.99829 24.36091,-26.94027 0,-14.859601 -12.22042,-27.082072 -27.08002,-27.082075 z m 0,16.287884 c 6.05727,1e-6 10.79214,4.736921 10.79214,10.794191 0,3.570953 -1.6706,6.652772 -4.2626,8.605349 -1.80471,1.359495 -4.04322,2.186784 -6.52954,2.186784 -4.12141,0 -7.58833,-2.2195 -9.41101,-5.528629 -0.85612,-1.554327 -1.38318,-3.327644 -1.38318,-5.263504 0,-6.057272 4.73691,-10.794193 10.79419,-10.794191 z"
         style="fill:#ffffff;stroke-width:1.05229;stroke-miterlimit:3.5"
         id="path22" />
    </g>
  </g>
</svg>
